<svg
  xmlns="http://www.w3.org/2000/svg"
  width="64"
  height="64"
  viewBox="0 0 64 64"
>
  <!-- Rounded white background -->
  <rect
    x="2"
    y="2"
    width="60"
    height="60"
    rx="14"
    ry="14"
    fill="#ffffff"
  />

  <g transform="translate(4 4) scale(1.69)" fill="currentColor">
    <path d="M29.8705 9.12306H25.5139C24.8248 9.12306 24.5453 9.12306 24.2008 8.90485C23.7299 8.65218 23.5117 8.15451 23.5117 7.68363V2.67627C23.9099 2.82557 24.2927 2.99784 24.6679 3.18926V7.77551C24.6679 7.99372 24.7942 7.99372 25.0737 7.99372H29.3843C29.568 8.3574 29.7288 8.73641 29.8666 9.12306H29.8705Z"/>
    <path d="M32.4789 14.8422H24.8875C24.409 14.8422 24.118 14.8919 23.1112 14.7962C22.2958 14.6508 21.4804 14.3636 20.7606 13.9311C19.3212 13.0659 18.2646 11.5728 17.9775 9.88841C17.8818 9.50558 17.832 9.02321 17.832 8.63656V0C18.4178 0.0650805 18.992 0.160795 19.5586 0.283299V8.63274C19.5586 8.91986 19.6045 9.25674 19.6543 9.54769C19.8954 10.7498 20.6611 11.8102 21.6679 12.4342C22.1962 12.7711 22.7705 12.9625 23.3485 13.0582C24.0185 13.108 24.4052 13.108 24.8837 13.108H32.2071C32.3258 13.6746 32.4177 14.2526 32.4751 14.8383L32.4789 14.8422Z"/>
    <path d="M2.60938 9.12306H6.96594C7.65503 9.12306 7.93449 9.12306 8.27903 8.90485C8.74991 8.65218 8.96811 8.15451 8.96811 7.68363V2.67627C8.56997 2.82557 8.18714 2.99784 7.81197 3.18926V7.77551C7.81197 7.99372 7.68564 7.99372 7.40617 7.99372H3.09557C2.91182 8.3574 2.75102 8.73641 2.61321 9.12306H2.60938Z"/>
    <path d="M0 14.8422H7.59145C8.06998 14.8422 8.36091 14.8919 9.36775 14.7962C10.1832 14.6508 10.9986 14.3636 11.7183 13.9311C13.1577 13.0659 14.2143 11.5728 14.5015 9.88841C14.5972 9.50558 14.6469 9.02321 14.6469 8.63656V0C14.0612 0.0650805 13.487 0.160795 12.9204 0.283299V8.63274C12.9204 8.91986 12.8744 9.25674 12.8247 9.54769C12.5835 10.7498 11.8178 11.8102 10.811 12.4342C10.2827 12.7711 9.70846 12.9625 9.1304 13.0582C8.46045 13.108 8.07379 13.108 7.59526 13.108H0.271792C0.153116 13.6746 0.0612559 14.2526 0.003832 14.8383L0 14.8422Z"/>
    <path d="M29.8705 23.6167H25.5139C24.8248 23.6167 24.5453 23.6167 24.2008 23.8349C23.7299 24.0876 23.5117 24.5853 23.5117 25.0561V30.0635C23.9099 29.9142 24.2927 29.7419 24.6679 29.5505V24.9643C24.6679 24.746 24.7942 24.746 25.0737 24.746H29.3843C29.568 24.3824 29.7288 24.0034 29.8666 23.6167H29.8705Z"/>
    <path d="M32.4789 17.9011H24.8875C24.409 17.9011 24.118 17.8513 23.1112 17.9471C22.2958 18.0925 21.4804 18.3797 20.7606 18.8122C19.3212 19.6774 18.2646 21.1705 17.9775 22.8549C17.8818 23.2377 17.832 23.7201 17.832 24.1067V32.7433C18.4178 32.6782 18.992 32.5825 19.5586 32.46V24.1106C19.5586 23.8234 19.6045 23.4865 19.6543 23.1956C19.8954 21.9935 20.6611 20.9331 21.6679 20.3091C22.1962 19.9722 22.7705 19.7808 23.3485 19.6851C24.0185 19.6353 24.4052 19.6353 24.8837 19.6353H32.2071C32.3258 19.0687 32.4177 18.4907 32.4751 17.905L32.4789 17.9011Z"/>
    <path d="M2.60938 23.6167H6.96594C7.65503 23.6167 7.93449 23.6167 8.27903 23.8349C8.74991 24.0876 8.96811 24.5853 8.96811 25.0561V30.0635C8.56997 29.9142 8.18714 29.7419 7.81197 29.5505V24.9643C7.81197 24.746 7.68564 24.746 7.40617 24.746H3.09557C2.91182 24.3824 2.75102 24.0034 2.61321 23.6167H2.60938Z"/>
    <path d="M0 17.9011H7.59145C8.06998 17.9011 8.36091 17.8513 9.36775 17.9471C10.1832 18.0925 10.9986 18.3797 11.7183 18.8122C13.1577 19.6774 14.2143 21.1705 14.5015 22.8549C14.5972 23.2377 14.6469 23.7201 14.6469 24.1067V32.7433C14.0612 32.6782 13.487 32.5825 12.9204 32.46V24.1106C12.9204 23.8234 12.8744 23.4865 12.8247 23.1956C12.5835 21.9935 11.8178 20.9331 10.811 20.3091C10.2827 19.9722 9.70846 19.7808 9.1304 19.6851C8.46045 19.6353 8.07379 19.6353 7.59526 19.6353H0.271792C0.153116 19.0687 0.0612559 18.4907 0.003832 17.905L0 17.9011Z"/>
  </g>
</svg>
