<svg width="32" height="32" viewBox="0 0 110 33" fill="none" xmlns="http://www.w3.org/2000/svg">
  <path d="M29.8705 9.12306H25.5139C24.8248 9.12306 24.5453 9.12306 24.2008 8.90485C23.7299 8.65218 23.5117 8.15451 23.5117 7.68363V2.67627C23.9099 2.82557 24.2927 2.99784 24.6679 3.18926V7.77551C24.6679 7.99372 24.7942 7.99372 25.0737 7.99372H29.3843C29.568 8.3574 29.7288 8.73641 29.8666 9.12306H29.8705Z" fill="#2563eb"/>
  <path d="M32.4789 14.8422H24.8875C24.409 14.8422 24.118 14.8919 23.1112 14.7962C22.2958 14.6508 21.4804 14.3636 20.7606 13.9311C19.3212 13.0659 18.2646 11.5728 17.9775 9.88841C17.8818 9.50558 17.832 9.02321 17.832 8.63656V0C18.4178 0.0650805 18.992 0.160795 19.5586 0.283299V8.63274C19.5586 8.91986 19.6045 9.25674 19.6543 9.54769C19.8954 10.7498 20.6611 11.8102 21.6679 12.4342C22.1962 12.7711 22.7705 12.9625 23.3485 13.0582C24.0185 13.108 24.4052 13.108 24.8837 13.108H32.2071C32.3258 13.6746 32.4177 14.2526 32.4751 14.8383L32.4789 14.8422Z" fill="#2563eb"/>
  <path d="M2.60938 9.12306H6.96594C7.65503 9.12306 7.93449 9.12306 8.27903 8.90485C8.74991 8.65218 8.96811 8.15451 8.96811 7.68363V2.67627C8.56997 2.82557 8.18714 2.99784 7.81197 3.18926V7.77551C7.81197 7.99372 7.68564 7.99372 7.40617 7.99372H3.09557C2.91182 8.3574 2.75102 8.73641 2.61321 9.12306H2.60938Z" fill="#2563eb"/>
  <path d="M0 14.8422H7.59145C8.06998 14.8422 8.36091 14.8919 9.36775 14.7962C10.1832 14.6508 10.9986 14.3636 11.7183 13.9311C13.1577 13.0659 14.2143 11.5728 14.5015 9.88841C14.5972 9.50558 14.6469 9.02321 14.6469 8.63656V0C14.0612 0.0650805 13.487 0.160795 12.9204 0.283299V8.63274C12.9204 8.91986 12.8744 9.25674 12.8247 9.54769C12.5835 10.7498 11.8178 11.8102 10.811 12.4342C10.2827 12.7711 9.70846 12.9625 9.1304 13.0582C8.46045 13.108 8.07379 13.108 7.59526 13.108H0.271792C0.153116 13.6746 0.0612559 14.2526 0.003832 14.8383L0 14.8422Z" fill="#2563eb"/>
  <path d="M61.2262 23.1553H55.9815C53.206 23.1553 51.2383 21.5665 51.2383 18.6494V4.89062H53.0644V18.9825C53.0644 19.6218 53.3745 20.2381 53.9678 20.8583C54.3468 21.2373 55.013 21.4287 55.9853 21.4287H61.2301V23.1591L61.2262 23.1553Z" fill="#2563eb"/>
  <path d="M70.006 27.8793H68.0612L70.1017 22.7303L64.9297 9.63379H66.8974L71.2157 20.3568L75.7713 9.63379H77.6701L70.006 27.8793Z" fill="#2563eb"/>
  <path d="M94.1818 23.1552H92.3558V15.2537C92.3558 14.1167 91.927 13.1405 91.1001 12.3136C90.2693 11.4829 89.3199 11.0809 88.2059 11.0809C87.0919 11.0809 86.0927 11.4829 85.2658 12.3136C84.4351 13.1443 84.0331 14.1167 84.0331 15.2537V23.1552H82.207V15.4451C82.207 13.688 82.7775 12.2409 83.9144 11.0809C85.0514 9.91712 86.4755 9.32373 88.2097 9.32373C89.9439 9.32373 91.3413 9.91712 92.4821 11.0809C93.6191 12.2447 94.1895 13.6918 94.1895 15.4451V23.1552H94.1818Z" fill="#2563eb"/>
  <path d="M110.002 23.1552H107.651L103.26 17.8416L101.101 20.5711V23.1552H99.1562V4.86377H101.032V17.7459L107.295 9.63378H109.55L104.401 16.4443L110.002 23.159V23.1552Z" fill="#2563eb"/>
</svg>

